<?xml version="1.0" encoding="UTF-8"?>
<svg xmlns="http://www.w3.org/2000/svg" xmlns:xlink="http://www.w3.org/1999/xlink" width="854" height="480" viewBox="0 0 854 480">
<defs>
<g>
<g id="glyph-0-0">
<rect x="0" y="0" width="0" height="0" mask="url(#mask-0)"/>
</g>
<g id="glyph-0-1">
<path d="M 1.511719 -1.003906 C 1.511719 -1.246094 1.472656 -1.429688 1.394531 -1.558594 C 1.316406 -1.683594 1.199219 -1.746094 1.046875 -1.746094 C 0.886719 -1.746094 0.765625 -1.683594 0.683594 -1.558594 C 0.601562 -1.429688 0.558594 -1.246094 0.558594 -1.003906 C 0.558594 -0.761719 0.601562 -0.574219 0.683594 -0.445312 C 0.769531 -0.320312 0.890625 -0.253906 1.050781 -0.253906 C 1.199219 -0.253906 1.3125 -0.320312 1.394531 -0.449219 C 1.472656 -0.578125 1.511719 -0.761719 1.511719 -1.003906 Z M 1.835938 -0.125 C 1.835938 0.167969 1.765625 0.394531 1.628906 0.546875 C 1.488281 0.699219 1.28125 0.777344 1.011719 0.777344 C 0.921875 0.777344 0.828125 0.765625 0.730469 0.75 C 0.632812 0.734375 0.535156 0.710938 0.4375 0.679688 L 0.4375 0.359375 C 0.550781 0.414062 0.65625 0.453125 0.75 0.476562 C 0.84375 0.503906 0.929688 0.515625 1.011719 0.515625 C 1.1875 0.515625 1.3125 0.46875 1.394531 0.375 C 1.472656 0.277344 1.511719 0.128906 1.511719 -0.078125 L 1.511719 -0.3125 C 1.460938 -0.203125 1.390625 -0.121094 1.300781 -0.0664062 C 1.210938 -0.0117188 1.101562 0.015625 0.976562 0.015625 C 0.746094 0.015625 0.5625 -0.078125 0.421875 -0.261719 C 0.285156 -0.445312 0.21875 -0.695312 0.21875 -1.003906 C 0.21875 -1.3125 0.285156 -1.5625 0.421875 -1.746094 C 0.558594 -1.929688 0.746094 -2.023438 0.976562 -2.023438 C 1.101562 -2.023438 1.210938 -1.996094 1.296875 -1.945312 C 1.386719 -1.894531 1.457031 -1.816406 1.511719 -1.710938 L 1.511719 -1.96875 L 1.835938 -1.96875 Z "/>
</g>
<g id="glyph-0-2">
<path d="M 1.972656 -1.148438 L 1.972656 -0.992188 L 0.570312 -0.992188 L 0.570312 -0.980469 C 0.558594 -0.710938 0.613281 -0.519531 0.722656 -0.398438 C 0.835938 -0.28125 0.996094 -0.222656 1.199219 -0.222656 C 1.300781 -0.222656 1.410156 -0.242188 1.523438 -0.273438 C 1.636719 -0.304688 1.757812 -0.355469 1.882812 -0.421875 L 1.882812 -0.101562 C 1.761719 -0.0507812 1.640625 -0.0117188 1.527344 0.0117188 C 1.414062 0.0390625 1.300781 0.0507812 1.195312 0.0507812 C 0.886719 0.0507812 0.648438 -0.0390625 0.476562 -0.226562 C 0.304688 -0.410156 0.21875 -0.664062 0.21875 -0.984375 C 0.21875 -1.300781 0.300781 -1.550781 0.46875 -1.738281 C 0.640625 -1.925781 0.867188 -2.023438 1.148438 -2.023438 C 1.398438 -2.023438 1.597656 -1.9375 1.742188 -1.765625 C 1.886719 -1.597656 1.964844 -1.390625 1.972656 -1.148438 Z M 1.648438 -1.246094 C 1.636719 -1.382812 1.585938 -1.5 1.5 -1.597656 C 1.414062 -1.695312 1.292969 -1.746094 1.132812 -1.746094 C 0.976562 -1.746094 0.847656 -1.695312 0.746094 -1.59375 C 0.644531 -1.488281 0.589844 -1.371094 0.582031 -1.242188 Z "/>
</g>
<g id="glyph-0-3">
<path d="M 1.082031 -2.535156 L 1.082031 -1.972656 L 1.820312 -1.972656 L 1.820312 -1.722656 L 1.082031 -1.722656 L 1.082031 -0.652344 C 1.082031 -0.503906 1.109375 -0.402344 1.164062 -0.34375 C 1.21875 -0.289062 1.316406 -0.257812 1.453125 -0.257812 L 1.820312 -0.257812 L 1.820312 0 L 1.421875 0 C 1.179688 0 1.007812 -0.046875 0.90625 -0.144531 C 0.808594 -0.242188 0.757812 -0.410156 0.757812 -0.652344 L 0.757812 -1.722656 L 0.230469 -1.722656 L 0.230469 -1.972656 L 0.757812 -1.972656 L 0.757812 -2.535156 Z "/>
</g>
<g id="glyph-0-4">
<path d="M 1.851562 -1.222656 L 1.851562 0 L 1.527344 0 L 1.527344 -1.222656 C 1.527344 -1.402344 1.496094 -1.53125 1.433594 -1.613281 C 1.371094 -1.699219 1.273438 -1.738281 1.140625 -1.738281 C 0.988281 -1.738281 0.871094 -1.6875 0.789062 -1.578125 C 0.707031 -1.472656 0.667969 -1.316406 0.667969 -1.117188 L 0.667969 0 L 0.34375 0 L 0.34375 -1.972656 L 0.667969 -1.972656 L 0.667969 -1.679688 C 0.726562 -1.792969 0.804688 -1.875 0.902344 -1.933594 C 1 -1.992188 1.117188 -2.023438 1.253906 -2.023438 C 1.453125 -2.023438 1.605469 -1.957031 1.703125 -1.824219 C 1.804688 -1.691406 1.851562 -1.492188 1.851562 -1.222656 Z "/>
</g>
<g id="glyph-0-5">
<path d="M 0.175781 -1.972656 L 0.511719 -1.972656 L 1.085938 -0.316406 L 1.660156 -1.972656 L 1.996094 -1.972656 L 1.296875 0 L 0.878906 0 Z "/>
</g>
<g id="glyph-0-6">
<path d="M 1.507812 -2.914062 C 1.351562 -2.648438 1.234375 -2.378906 1.15625 -2.113281 C 1.078125 -1.847656 1.042969 -1.582031 1.042969 -1.308594 C 1.042969 -1.039062 1.082031 -0.773438 1.15625 -0.507812 C 1.234375 -0.238281 1.351562 0.03125 1.507812 0.300781 L 1.226562 0.300781 C 1.046875 0.0195312 0.914062 -0.253906 0.828125 -0.515625 C 0.742188 -0.78125 0.699219 -1.046875 0.699219 -1.308594 C 0.699219 -1.570312 0.742188 -1.835938 0.828125 -2.101562 C 0.914062 -2.367188 1.046875 -2.636719 1.226562 -2.914062 Z "/>
</g>
<g id="glyph-0-7">
<path d="M 1.664062 -2.726562 L 1.664062 -1.648438 L 1.269531 -1.648438 L 1.269531 -2.726562 Z M 0.726562 -2.726562 L 0.726562 -1.648438 L 0.332031 -1.648438 L 0.332031 -2.726562 Z "/>
</g>
<g id="glyph-0-8">
<path d="M 1.890625 -0.09375 C 1.800781 -0.046875 1.707031 -0.0078125 1.613281 0.015625 C 1.519531 0.0390625 1.417969 0.0507812 1.308594 0.0507812 C 0.972656 0.0507812 0.710938 -0.0664062 0.523438 -0.308594 C 0.335938 -0.546875 0.246094 -0.878906 0.246094 -1.3125 C 0.246094 -1.742188 0.339844 -2.078125 0.527344 -2.320312 C 0.714844 -2.558594 0.976562 -2.679688 1.308594 -2.679688 C 1.417969 -2.679688 1.519531 -2.667969 1.613281 -2.644531 C 1.707031 -2.621094 1.800781 -2.582031 1.890625 -2.535156 L 1.890625 -2.171875 C 1.804688 -2.242188 1.710938 -2.296875 1.609375 -2.335938 C 1.511719 -2.371094 1.410156 -2.390625 1.308594 -2.390625 C 1.078125 -2.390625 0.90625 -2.300781 0.789062 -2.121094 C 0.675781 -1.945312 0.617188 -1.675781 0.617188 -1.3125 C 0.617188 -0.953125 0.675781 -0.683594 0.789062 -0.507812 C 0.90625 -0.328125 1.078125 -0.238281 1.308594 -0.238281 C 1.414062 -0.238281 1.515625 -0.257812 1.613281 -0.292969 C 1.714844 -0.332031 1.804688 -0.386719 1.890625 -0.457031 Z "/>
</g>
<g id="glyph-0-9">
<path d="M 0.0625 -2.625 L 0.539062 -2.625 L 0.996094 -1.285156 L 1.453125 -2.625 L 1.929688 -2.625 L 1.929688 0 L 1.601562 0 L 1.601562 -2.316406 L 1.132812 -0.9375 L 0.863281 -0.9375 L 0.390625 -2.316406 L 0.390625 0 L 0.0625 0 Z "/>
</g>
<g id="glyph-0-10">
<path d="M 0.769531 -0.292969 C 1.070312 -0.292969 1.277344 -0.367188 1.394531 -0.515625 C 1.515625 -0.660156 1.574219 -0.929688 1.574219 -1.3125 C 1.574219 -1.703125 1.515625 -1.96875 1.398438 -2.117188 C 1.28125 -2.265625 1.070312 -2.339844 0.769531 -2.339844 L 0.597656 -2.339844 L 0.597656 -0.292969 Z M 0.777344 -2.632812 C 1.179688 -2.632812 1.472656 -2.523438 1.664062 -2.3125 C 1.855469 -2.097656 1.949219 -1.765625 1.949219 -1.3125 C 1.949219 -0.863281 1.855469 -0.535156 1.664062 -0.320312 C 1.472656 -0.105469 1.175781 0 0.777344 0 L 0.242188 0 L 0.242188 -2.632812 Z "/>
</g>
<g id="glyph-0-11">
<path d="M 0.613281 -2.914062 L 0.894531 -2.914062 C 1.074219 -2.636719 1.207031 -2.367188 1.292969 -2.101562 C 1.378906 -1.835938 1.421875 -1.570312 1.421875 -1.308594 C 1.421875 -1.046875 1.378906 -0.78125 1.292969 -0.515625 C 1.207031 -0.25 1.074219 0.0234375 0.894531 0.300781 L 0.613281 0.300781 C 0.769531 0.0273438 0.886719 -0.242188 0.964844 -0.507812 C 1.039062 -0.777344 1.078125 -1.042969 1.078125 -1.308594 C 1.078125 -1.578125 1.039062 -1.84375 0.964844 -2.113281 C 0.886719 -2.378906 0.769531 -2.648438 0.613281 -2.914062 Z "/>
</g>
<g id="glyph-0-12">
<path d="M 0.777344 -0.636719 L 1.328125 -0.636719 L 1.328125 -0.167969 L 0.980469 0.503906 L 0.605469 0.503906 L 0.777344 -0.167969 Z M 0.757812 -1.972656 L 1.304688 -1.972656 L 1.304688 -1.335938 L 0.757812 -1.335938 Z "/>
</g>
</g>
<image id="source-47" x="0" y="0" width="0" height="0"/>
<mask id="mask-0">
<use xlink:href="#source-47"/>
</mask>
</defs>
<g fill="rgb(100%, 100%, 100%)" fill-opacity="1">
<use xlink:href="#glyph-0-0" x="30" y="23.351562"/>
<use xlink:href="#glyph-0-0" x="32" y="23.351562"/>
<use xlink:href="#glyph-0-0" x="34" y="23.351562"/>
<use xlink:href="#glyph-0-0" x="36" y="23.351562"/>
<use xlink:href="#glyph-0-1" x="38" y="23.351562"/>
<use xlink:href="#glyph-0-2" x="40" y="23.351562"/>
<use xlink:href="#glyph-0-3" x="42" y="23.351562"/>
<use xlink:href="#glyph-0-2" x="44" y="23.351562"/>
<use xlink:href="#glyph-0-4" x="46" y="23.351562"/>
<use xlink:href="#glyph-0-5" x="48" y="23.351562"/>
<use xlink:href="#glyph-0-6" x="50" y="23.351562"/>
<use xlink:href="#glyph-0-7" x="52" y="23.351562"/>
<use xlink:href="#glyph-0-8" x="54" y="23.351562"/>
<use xlink:href="#glyph-0-9" x="56" y="23.351562"/>
<use xlink:href="#glyph-0-10" x="58" y="23.351562"/>
<use xlink:href="#glyph-0-7" x="60" y="23.351562"/>
<use xlink:href="#glyph-0-11" x="62" y="23.351562"/>
<use xlink:href="#glyph-0-12" x="64" y="23.351562"/>
</g>
</svg>
