<?xml version="1.0" encoding="UTF-8"?>
<svg xmlns="http://www.w3.org/2000/svg" xmlns:xlink="http://www.w3.org/1999/xlink" width="854" height="480" viewBox="0 0 854 480">
<defs>
<g>
<g id="glyph-0-0">
<path d="M 1.675781 0 L 0.980469 0 L 0.980469 -0.046875 C 1.125 -0.0507812 1.199219 -0.101562 1.199219 -0.199219 L 1.199219 -0.789062 C 1.003906 -0.71875 0.839844 -0.683594 0.707031 -0.683594 C 0.40625 -0.683594 0.253906 -0.804688 0.253906 -1.046875 L 0.253906 -1.453125 C 0.253906 -1.550781 0.183594 -1.601562 0.0351562 -1.609375 L 0.0351562 -1.65625 L 0.730469 -1.65625 L 0.730469 -1.609375 C 0.582031 -1.601562 0.511719 -1.550781 0.511719 -1.453125 L 0.511719 -1.0625 C 0.511719 -0.878906 0.613281 -0.785156 0.816406 -0.785156 C 0.925781 -0.785156 1.054688 -0.808594 1.199219 -0.855469 L 1.199219 -1.453125 C 1.199219 -1.550781 1.125 -1.601562 0.980469 -1.609375 L 0.980469 -1.65625 L 1.675781 -1.65625 L 1.675781 -1.609375 C 1.527344 -1.601562 1.453125 -1.550781 1.453125 -1.453125 L 1.453125 -0.199219 C 1.453125 -0.101562 1.527344 -0.0507812 1.675781 -0.046875 Z "/>
</g>
<g id="glyph-0-1">
<path d="M 0.0234375 -0.0351562 C 0.0859375 -0.0351562 0.128906 -0.0429688 0.152344 -0.0585938 C 0.179688 -0.078125 0.191406 -0.117188 0.191406 -0.175781 L 0.191406 -0.945312 C 0.191406 -1.003906 0.175781 -1.042969 0.152344 -1.0625 C 0.132812 -1.074219 0.0898438 -1.082031 0.0234375 -1.085938 L 0.0234375 -1.121094 L 0.566406 -1.121094 L 0.566406 -1.085938 C 0.5 -1.082031 0.457031 -1.074219 0.4375 -1.0625 C 0.414062 -1.042969 0.398438 -1.003906 0.398438 -0.945312 L 0.398438 -0.289062 L 0.40625 -0.289062 L 0.886719 -0.964844 C 0.882812 -1.027344 0.859375 -1.066406 0.8125 -1.078125 C 0.789062 -1.082031 0.757812 -1.085938 0.71875 -1.085938 L 0.71875 -1.121094 L 1.257812 -1.121094 L 1.257812 -1.085938 C 1.195312 -1.082031 1.15625 -1.074219 1.132812 -1.0625 C 1.109375 -1.042969 1.09375 -1.003906 1.09375 -0.945312 L 1.09375 -0.175781 C 1.09375 -0.117188 1.109375 -0.0742188 1.136719 -0.0585938 C 1.15625 -0.0429688 1.195312 -0.0351562 1.257812 -0.0351562 L 1.257812 0 L 0.71875 0 L 0.71875 -0.0351562 C 0.78125 -0.0351562 0.824219 -0.0429688 0.847656 -0.0585938 C 0.871094 -0.078125 0.886719 -0.117188 0.886719 -0.175781 L 0.886719 -0.832031 L 0.878906 -0.832031 L 0.398438 -0.15625 C 0.402344 -0.0898438 0.425781 -0.0507812 0.472656 -0.0429688 C 0.492188 -0.0390625 0.523438 -0.0351562 0.566406 -0.0351562 L 0.566406 0 L 0.0234375 0 Z "/>
</g>
<g id="glyph-0-2">
<path d="M 0.285156 -0.0351562 C 0.351562 -0.0351562 0.398438 -0.0429688 0.421875 -0.0546875 C 0.453125 -0.0742188 0.46875 -0.113281 0.46875 -0.175781 L 0.46875 -1 C 0.46875 -1.035156 0.449219 -1.050781 0.40625 -1.050781 C 0.222656 -1.050781 0.117188 -0.945312 0.0898438 -0.734375 L 0.03125 -0.734375 L 0.0507812 -1.121094 L 1.097656 -1.121094 L 1.117188 -0.734375 L 1.058594 -0.734375 C 1.03125 -0.945312 0.925781 -1.050781 0.742188 -1.050781 C 0.699219 -1.050781 0.679688 -1.035156 0.679688 -1 L 0.679688 -0.175781 C 0.679688 -0.113281 0.695312 -0.0742188 0.730469 -0.0546875 C 0.753906 -0.0429688 0.796875 -0.0351562 0.867188 -0.0351562 L 0.867188 0 L 0.285156 0 Z "/>
</g>
<g id="glyph-0-3">
<path d="M 0.707031 -0.726562 C 0.707031 -0.859375 0.695312 -0.949219 0.675781 -1 C 0.65625 -1.058594 0.609375 -1.085938 0.53125 -1.085938 C 0.414062 -1.085938 0.355469 -1.050781 0.355469 -0.976562 C 0.355469 -0.964844 0.355469 -0.949219 0.359375 -0.925781 C 0.359375 -0.902344 0.359375 -0.886719 0.359375 -0.875 C 0.359375 -0.84375 0.347656 -0.816406 0.324219 -0.796875 C 0.300781 -0.773438 0.277344 -0.761719 0.246094 -0.761719 C 0.175781 -0.761719 0.136719 -0.796875 0.136719 -0.863281 C 0.136719 -0.957031 0.1875 -1.03125 0.289062 -1.082031 C 0.371094 -1.125 0.464844 -1.144531 0.566406 -1.144531 C 0.707031 -1.144531 0.800781 -1.109375 0.855469 -1.035156 C 0.898438 -0.972656 0.921875 -0.867188 0.921875 -0.71875 L 0.921875 -0.191406 C 0.921875 -0.140625 0.9375 -0.113281 0.976562 -0.113281 C 1.003906 -0.113281 1.046875 -0.132812 1.105469 -0.171875 L 1.105469 -0.109375 C 1.023438 -0.0195312 0.953125 0.0234375 0.890625 0.0234375 C 0.785156 0.0234375 0.726562 -0.0390625 0.71875 -0.164062 C 0.644531 -0.101562 0.585938 -0.0585938 0.539062 -0.03125 C 0.46875 0.0078125 0.40625 0.0234375 0.351562 0.0234375 C 0.277344 0.0234375 0.21875 0 0.167969 -0.0546875 C 0.117188 -0.105469 0.09375 -0.167969 0.09375 -0.242188 C 0.09375 -0.355469 0.152344 -0.453125 0.277344 -0.535156 C 0.347656 -0.582031 0.457031 -0.632812 0.609375 -0.691406 C 0.636719 -0.699219 0.667969 -0.710938 0.707031 -0.726562 Z M 0.707031 -0.660156 C 0.695312 -0.65625 0.667969 -0.644531 0.628906 -0.628906 C 0.507812 -0.585938 0.429688 -0.546875 0.386719 -0.507812 C 0.335938 -0.460938 0.3125 -0.402344 0.3125 -0.328125 C 0.3125 -0.273438 0.324219 -0.226562 0.351562 -0.1875 C 0.382812 -0.144531 0.425781 -0.121094 0.476562 -0.121094 C 0.515625 -0.121094 0.558594 -0.132812 0.605469 -0.15625 C 0.652344 -0.175781 0.6875 -0.203125 0.707031 -0.230469 Z "/>
</g>
<g id="glyph-0-4">
<path d="M 0.226562 -0.691406 C 0.234375 -0.570312 0.257812 -0.472656 0.289062 -0.398438 C 0.363281 -0.226562 0.476562 -0.144531 0.628906 -0.144531 C 0.710938 -0.144531 0.792969 -0.175781 0.871094 -0.242188 C 0.921875 -0.28125 0.96875 -0.335938 1.011719 -0.410156 L 1.050781 -0.394531 C 1.007812 -0.289062 0.960938 -0.207031 0.90625 -0.148438 C 0.796875 -0.03125 0.671875 0.0234375 0.53125 0.0234375 C 0.382812 0.0234375 0.261719 -0.0351562 0.175781 -0.152344 C 0.09375 -0.261719 0.0546875 -0.390625 0.0546875 -0.542969 C 0.0546875 -0.710938 0.0976562 -0.847656 0.183594 -0.960938 C 0.277344 -1.082031 0.40625 -1.144531 0.566406 -1.144531 C 0.753906 -1.144531 0.882812 -1.0625 0.960938 -0.894531 C 0.984375 -0.839844 1 -0.773438 1.003906 -0.691406 Z M 0.75 -0.769531 C 0.734375 -0.960938 0.652344 -1.058594 0.507812 -1.058594 C 0.359375 -1.058594 0.269531 -0.960938 0.234375 -0.769531 Z "/>
</g>
<g id="glyph-0-5">
<path d="M 0.0234375 -0.0351562 C 0.0859375 -0.0351562 0.128906 -0.0429688 0.152344 -0.0585938 C 0.179688 -0.078125 0.191406 -0.117188 0.191406 -0.175781 L 0.191406 -0.945312 C 0.191406 -1.003906 0.175781 -1.042969 0.152344 -1.0625 C 0.132812 -1.074219 0.0898438 -1.082031 0.0234375 -1.085938 L 0.0234375 -1.121094 L 0.375 -1.121094 L 0.773438 -0.300781 L 1.117188 -1.121094 L 1.492188 -1.121094 L 1.492188 -1.085938 C 1.429688 -1.082031 1.386719 -1.074219 1.363281 -1.0625 C 1.335938 -1.042969 1.324219 -1.003906 1.324219 -0.945312 L 1.324219 -0.175781 C 1.324219 -0.117188 1.335938 -0.078125 1.363281 -0.0585938 C 1.386719 -0.0429688 1.429688 -0.0351562 1.492188 -0.0351562 L 1.492188 0 L 0.953125 0 L 0.953125 -0.0351562 C 1.015625 -0.0351562 1.054688 -0.0429688 1.078125 -0.0585938 C 1.105469 -0.078125 1.117188 -0.117188 1.117188 -0.175781 L 1.117188 -0.90625 L 1.113281 -0.90625 L 0.710938 0 L 0.683594 0 L 0.28125 -0.84375 L 0.28125 -0.175781 C 0.28125 -0.117188 0.292969 -0.078125 0.320312 -0.0585938 C 0.339844 -0.0429688 0.382812 -0.0351562 0.445312 -0.0351562 L 0.445312 0 L 0.0234375 0 Z "/>
</g>
<g id="glyph-0-6">
<rect x="0" y="0" width="0" height="0" mask="url(#mask-0)"/>
</g>
<g id="glyph-0-7">
<path d="M 1.175781 -0.605469 C 1.175781 -0.429688 1.125 -0.285156 1.027344 -0.164062 C 0.925781 -0.0390625 0.789062 0.0234375 0.617188 0.0234375 C 0.457031 0.0234375 0.324219 -0.03125 0.222656 -0.148438 C 0.125 -0.257812 0.0742188 -0.394531 0.0742188 -0.558594 C 0.0742188 -0.726562 0.121094 -0.863281 0.21875 -0.972656 C 0.320312 -1.085938 0.453125 -1.144531 0.617188 -1.144531 C 0.777344 -1.144531 0.910156 -1.09375 1.015625 -0.996094 C 1.121094 -0.894531 1.175781 -0.765625 1.175781 -0.605469 Z M 0.945312 -0.476562 C 0.945312 -0.621094 0.921875 -0.75 0.871094 -0.855469 C 0.808594 -1 0.714844 -1.070312 0.585938 -1.070312 C 0.484375 -1.070312 0.40625 -1.023438 0.359375 -0.929688 C 0.324219 -0.859375 0.304688 -0.769531 0.304688 -0.65625 C 0.304688 -0.511719 0.328125 -0.382812 0.375 -0.273438 C 0.4375 -0.125 0.53125 -0.0507812 0.65625 -0.0507812 C 0.757812 -0.0507812 0.832031 -0.0976562 0.882812 -0.195312 C 0.925781 -0.273438 0.945312 -0.367188 0.945312 -0.476562 Z "/>
</g>
<g id="glyph-0-8">
<path d="M 1.175781 -0.605469 C 1.175781 -0.433594 1.128906 -0.289062 1.03125 -0.175781 C 0.929688 -0.0507812 0.796875 0.0117188 0.628906 0.0117188 C 0.453125 0.0117188 0.316406 -0.0585938 0.21875 -0.199219 C 0.132812 -0.324219 0.0859375 -0.476562 0.0859375 -0.664062 C 0.0859375 -0.894531 0.128906 -1.089844 0.214844 -1.253906 C 0.324219 -1.460938 0.480469 -1.5625 0.691406 -1.5625 L 0.921875 -1.5625 C 0.976562 -1.5625 1.015625 -1.570312 1.039062 -1.582031 C 1.070312 -1.601562 1.089844 -1.632812 1.101562 -1.683594 L 1.148438 -1.683594 C 1.132812 -1.511719 1.050781 -1.414062 0.90625 -1.390625 C 0.878906 -1.386719 0.824219 -1.386719 0.738281 -1.386719 C 0.609375 -1.386719 0.515625 -1.371094 0.457031 -1.339844 C 0.296875 -1.261719 0.203125 -1.09375 0.179688 -0.84375 L 0.1875 -0.84375 C 0.277344 -1.035156 0.425781 -1.132812 0.628906 -1.132812 C 0.785156 -1.132812 0.914062 -1.085938 1.019531 -0.988281 C 1.125 -0.886719 1.175781 -0.761719 1.175781 -0.605469 Z M 0.945312 -0.476562 C 0.945312 -0.617188 0.921875 -0.742188 0.875 -0.847656 C 0.816406 -0.988281 0.722656 -1.058594 0.597656 -1.058594 C 0.5 -1.058594 0.425781 -1.011719 0.375 -0.921875 C 0.335938 -0.851562 0.316406 -0.761719 0.316406 -0.65625 C 0.316406 -0.515625 0.339844 -0.390625 0.386719 -0.28125 C 0.453125 -0.136719 0.546875 -0.0625 0.671875 -0.0625 C 0.765625 -0.0625 0.835938 -0.109375 0.886719 -0.203125 C 0.925781 -0.28125 0.945312 -0.371094 0.945312 -0.476562 Z "/>
</g>
<g id="glyph-0-9">
<path d="M 0.824219 -1.082031 C 0.761719 -1.078125 0.71875 -1.070312 0.699219 -1.058594 C 0.671875 -1.039062 0.65625 -1 0.65625 -0.941406 L 0.65625 -0.617188 L 0.875 -0.617188 C 1.183594 -0.617188 1.339844 -0.511719 1.339844 -0.304688 C 1.339844 -0.199219 1.296875 -0.121094 1.207031 -0.0664062 C 1.132812 -0.0234375 1.039062 0 0.929688 0 L 0.285156 0 L 0.285156 -0.0351562 C 0.347656 -0.0351562 0.390625 -0.0429688 0.410156 -0.0585938 C 0.4375 -0.078125 0.449219 -0.117188 0.449219 -0.175781 L 0.449219 -0.976562 C 0.449219 -1.003906 0.433594 -1.019531 0.398438 -1.027344 C 0.386719 -1.03125 0.359375 -1.03125 0.316406 -1.03125 C 0.21875 -1.03125 0.15625 -1.011719 0.125 -0.976562 C 0.101562 -0.949219 0.078125 -0.890625 0.0546875 -0.804688 L 0.0117188 -0.804688 L 0.03125 -1.113281 L 0.824219 -1.113281 Z M 0.65625 -0.542969 L 0.65625 -0.136719 C 0.65625 -0.105469 0.671875 -0.0859375 0.699219 -0.0742188 C 0.710938 -0.0703125 0.738281 -0.0703125 0.78125 -0.0703125 C 1 -0.0703125 1.113281 -0.152344 1.113281 -0.316406 C 1.113281 -0.398438 1.074219 -0.457031 1 -0.496094 C 0.941406 -0.527344 0.867188 -0.542969 0.777344 -0.542969 Z "/>
</g>
<g id="glyph-0-10">
<path d="M 0.0117188 -0.0351562 C 0.132812 -0.0351562 0.203125 -0.140625 0.226562 -0.355469 C 0.242188 -0.519531 0.25 -0.707031 0.25 -0.921875 C 0.25 -0.996094 0.234375 -1.042969 0.207031 -1.0625 C 0.1875 -1.074219 0.136719 -1.082031 0.0625 -1.085938 L 0.0625 -1.121094 L 1.089844 -1.121094 L 1.089844 -1.085938 C 1.023438 -1.082031 0.980469 -1.074219 0.960938 -1.0625 C 0.9375 -1.042969 0.921875 -1.003906 0.921875 -0.941406 L 0.921875 -0.15625 C 0.921875 -0.105469 0.933594 -0.0703125 0.960938 -0.0546875 C 0.976562 -0.0429688 1.011719 -0.0351562 1.066406 -0.0351562 L 1.066406 0.375 L 1.007812 0.375 C 0.972656 0.226562 0.933594 0.121094 0.894531 0.0664062 C 0.863281 0.0234375 0.8125 0 0.75 0 L 0.328125 0 C 0.265625 0 0.214844 0.0234375 0.183594 0.0664062 C 0.144531 0.121094 0.105469 0.222656 0.0703125 0.375 L 0.0117188 0.375 Z M 0.246094 -0.0585938 L 0.5625 -0.0585938 C 0.664062 -0.0585938 0.714844 -0.113281 0.714844 -0.21875 L 0.714844 -0.933594 C 0.714844 -0.988281 0.699219 -1.023438 0.667969 -1.042969 C 0.644531 -1.054688 0.601562 -1.058594 0.542969 -1.058594 C 0.472656 -1.058594 0.425781 -1.050781 0.398438 -1.03125 C 0.367188 -1.007812 0.355469 -0.964844 0.351562 -0.898438 L 0.351562 -0.683594 C 0.347656 -0.484375 0.332031 -0.324219 0.300781 -0.203125 C 0.289062 -0.164062 0.273438 -0.117188 0.246094 -0.0585938 Z "/>
</g>
<g id="glyph-0-11">
<path d="M 0.0234375 -0.0351562 C 0.0859375 -0.0351562 0.128906 -0.0429688 0.152344 -0.0585938 C 0.179688 -0.078125 0.191406 -0.117188 0.191406 -0.175781 L 0.191406 -0.945312 C 0.191406 -1.003906 0.175781 -1.042969 0.152344 -1.0625 C 0.132812 -1.074219 0.0898438 -1.082031 0.0234375 -1.085938 L 0.0234375 -1.121094 L 0.554688 -1.121094 L 0.554688 -1.085938 C 0.476562 -1.082031 0.429688 -1.066406 0.414062 -1.035156 C 0.40625 -1.015625 0.398438 -0.984375 0.398438 -0.945312 L 0.398438 -0.621094 L 0.851562 -0.621094 L 0.851562 -0.945312 C 0.851562 -1 0.839844 -1.039062 0.816406 -1.058594 C 0.796875 -1.074219 0.757812 -1.082031 0.695312 -1.085938 L 0.695312 -1.121094 L 1.226562 -1.121094 L 1.226562 -1.085938 C 1.160156 -1.082031 1.117188 -1.074219 1.097656 -1.0625 C 1.070312 -1.042969 1.058594 -1.003906 1.058594 -0.945312 L 1.058594 -0.175781 C 1.058594 -0.117188 1.074219 -0.0742188 1.101562 -0.0585938 C 1.121094 -0.0429688 1.164062 -0.0351562 1.226562 -0.0351562 L 1.226562 0 L 0.695312 0 L 0.695312 -0.0351562 C 0.773438 -0.0351562 0.820312 -0.0546875 0.835938 -0.0859375 C 0.84375 -0.105469 0.851562 -0.132812 0.851562 -0.175781 L 0.851562 -0.53125 L 0.398438 -0.53125 L 0.398438 -0.175781 C 0.398438 -0.117188 0.410156 -0.0820312 0.433594 -0.0625 C 0.453125 -0.046875 0.492188 -0.0351562 0.554688 -0.0351562 L 0.554688 0 L 0.0234375 0 Z "/>
</g>
<g id="glyph-0-12">
<path d="M 0.792969 -1.496094 C 0.828125 -1.496094 0.855469 -1.484375 0.878906 -1.460938 C 0.902344 -1.4375 0.914062 -1.410156 0.914062 -1.375 C 0.914062 -1.339844 0.902344 -1.3125 0.878906 -1.289062 C 0.855469 -1.265625 0.828125 -1.253906 0.792969 -1.253906 C 0.761719 -1.253906 0.734375 -1.265625 0.707031 -1.289062 C 0.683594 -1.3125 0.671875 -1.339844 0.671875 -1.375 C 0.671875 -1.40625 0.683594 -1.433594 0.707031 -1.460938 C 0.730469 -1.484375 0.757812 -1.496094 0.792969 -1.496094 Z M 0.316406 -1.496094 C 0.351562 -1.496094 0.378906 -1.484375 0.402344 -1.460938 C 0.425781 -1.4375 0.4375 -1.410156 0.4375 -1.375 C 0.4375 -1.339844 0.429688 -1.3125 0.40625 -1.289062 C 0.382812 -1.265625 0.355469 -1.253906 0.320312 -1.253906 C 0.285156 -1.253906 0.257812 -1.265625 0.234375 -1.289062 C 0.210938 -1.3125 0.199219 -1.339844 0.199219 -1.375 C 0.199219 -1.40625 0.210938 -1.433594 0.234375 -1.460938 C 0.257812 -1.484375 0.285156 -1.496094 0.316406 -1.496094 Z M 0.226562 -0.691406 C 0.234375 -0.570312 0.257812 -0.472656 0.289062 -0.398438 C 0.363281 -0.226562 0.476562 -0.144531 0.628906 -0.144531 C 0.710938 -0.144531 0.792969 -0.175781 0.871094 -0.242188 C 0.921875 -0.28125 0.96875 -0.335938 1.011719 -0.410156 L 1.050781 -0.394531 C 1.007812 -0.289062 0.960938 -0.207031 0.90625 -0.148438 C 0.796875 -0.03125 0.671875 0.0234375 0.53125 0.0234375 C 0.382812 0.0234375 0.261719 -0.0351562 0.175781 -0.152344 C 0.09375 -0.261719 0.0546875 -0.390625 0.0546875 -0.542969 C 0.0546875 -0.710938 0.0976562 -0.847656 0.183594 -0.960938 C 0.277344 -1.082031 0.40625 -1.144531 0.566406 -1.144531 C 0.753906 -1.144531 0.882812 -1.0625 0.960938 -0.894531 C 0.984375 -0.839844 1 -0.773438 1.003906 -0.691406 Z M 0.75 -0.769531 C 0.734375 -0.960938 0.652344 -1.058594 0.507812 -1.058594 C 0.359375 -1.058594 0.269531 -0.960938 0.234375 -0.769531 Z "/>
</g>
<g id="glyph-0-13">
<path d="M 0.0234375 -0.0351562 C 0.0859375 -0.0351562 0.128906 -0.0429688 0.152344 -0.0585938 C 0.179688 -0.078125 0.191406 -0.117188 0.191406 -0.175781 L 0.191406 -0.945312 C 0.191406 -1.003906 0.175781 -1.042969 0.152344 -1.0625 C 0.132812 -1.074219 0.0898438 -1.082031 0.0234375 -1.085938 L 0.0234375 -1.121094 L 0.566406 -1.121094 L 0.566406 -1.085938 C 0.5 -1.082031 0.457031 -1.074219 0.4375 -1.0625 C 0.414062 -1.042969 0.398438 -1.003906 0.398438 -0.945312 L 0.398438 -0.617188 L 0.617188 -0.617188 C 0.925781 -0.617188 1.082031 -0.511719 1.082031 -0.308594 C 1.082031 -0.203125 1.039062 -0.121094 0.949219 -0.0664062 C 0.875 -0.0234375 0.78125 0 0.667969 0 L 0.0234375 0 Z M 1.140625 -0.0351562 C 1.203125 -0.0351562 1.246094 -0.0429688 1.269531 -0.0585938 C 1.292969 -0.078125 1.308594 -0.117188 1.308594 -0.175781 L 1.308594 -0.945312 C 1.308594 -1.003906 1.292969 -1.042969 1.269531 -1.0625 C 1.25 -1.074219 1.207031 -1.082031 1.140625 -1.085938 L 1.140625 -1.121094 L 1.671875 -1.121094 L 1.671875 -1.085938 C 1.613281 -1.082031 1.574219 -1.074219 1.554688 -1.058594 C 1.53125 -1.039062 1.515625 -1 1.515625 -0.945312 L 1.515625 -0.175781 C 1.515625 -0.121094 1.527344 -0.0820312 1.554688 -0.0625 C 1.574219 -0.046875 1.613281 -0.0351562 1.671875 -0.0351562 L 1.671875 0 L 1.140625 0 Z M 0.398438 -0.542969 L 0.398438 -0.140625 C 0.398438 -0.105469 0.414062 -0.0859375 0.445312 -0.078125 C 0.457031 -0.0742188 0.488281 -0.0703125 0.535156 -0.0703125 C 0.746094 -0.0703125 0.851562 -0.152344 0.851562 -0.316406 C 0.851562 -0.398438 0.816406 -0.460938 0.738281 -0.5 C 0.679688 -0.53125 0.609375 -0.542969 0.515625 -0.542969 Z "/>
</g>
<g id="glyph-0-14">
<path d="M 0.457031 -1.636719 C 0.5 -1.636719 0.523438 -1.617188 0.523438 -1.578125 C 0.523438 -1.546875 0.503906 -1.527344 0.460938 -1.519531 C 0.429688 -1.511719 0.414062 -1.5 0.414062 -1.480469 C 0.414062 -1.417969 0.492188 -1.386719 0.644531 -1.386719 C 0.796875 -1.386719 0.875 -1.417969 0.875 -1.480469 C 0.875 -1.5 0.859375 -1.511719 0.828125 -1.519531 C 0.789062 -1.53125 0.769531 -1.550781 0.769531 -1.578125 C 0.769531 -1.617188 0.789062 -1.636719 0.828125 -1.636719 C 0.898438 -1.636719 0.933594 -1.585938 0.933594 -1.488281 C 0.933594 -1.414062 0.902344 -1.359375 0.839844 -1.3125 C 0.785156 -1.273438 0.71875 -1.253906 0.644531 -1.253906 C 0.570312 -1.253906 0.503906 -1.273438 0.449219 -1.3125 C 0.386719 -1.355469 0.355469 -1.414062 0.355469 -1.488281 C 0.355469 -1.527344 0.363281 -1.558594 0.378906 -1.585938 C 0.398438 -1.621094 0.421875 -1.636719 0.457031 -1.636719 Z M 0.0234375 -0.0351562 C 0.0859375 -0.0351562 0.128906 -0.0429688 0.152344 -0.0585938 C 0.179688 -0.078125 0.191406 -0.117188 0.191406 -0.175781 L 0.191406 -0.945312 C 0.191406 -1.003906 0.175781 -1.042969 0.152344 -1.0625 C 0.132812 -1.074219 0.0898438 -1.082031 0.0234375 -1.085938 L 0.0234375 -1.121094 L 0.566406 -1.121094 L 0.566406 -1.085938 C 0.5 -1.082031 0.457031 -1.074219 0.4375 -1.0625 C 0.414062 -1.042969 0.398438 -1.003906 0.398438 -0.945312 L 0.398438 -0.289062 L 0.40625 -0.289062 L 0.886719 -0.964844 C 0.882812 -1.027344 0.859375 -1.066406 0.8125 -1.078125 C 0.789062 -1.082031 0.757812 -1.085938 0.71875 -1.085938 L 0.71875 -1.121094 L 1.257812 -1.121094 L 1.257812 -1.085938 C 1.195312 -1.082031 1.15625 -1.074219 1.132812 -1.0625 C 1.109375 -1.042969 1.09375 -1.003906 1.09375 -0.945312 L 1.09375 -0.175781 C 1.09375 -0.117188 1.109375 -0.0742188 1.136719 -0.0585938 C 1.15625 -0.0429688 1.195312 -0.0351562 1.257812 -0.0351562 L 1.257812 0 L 0.71875 0 L 0.71875 -0.0351562 C 0.78125 -0.0351562 0.824219 -0.0429688 0.847656 -0.0585938 C 0.871094 -0.078125 0.886719 -0.117188 0.886719 -0.175781 L 0.886719 -0.832031 L 0.878906 -0.832031 L 0.398438 -0.15625 C 0.402344 -0.0898438 0.425781 -0.0507812 0.472656 -0.0429688 C 0.492188 -0.0390625 0.523438 -0.0351562 0.566406 -0.0351562 L 0.566406 0 L 0.0234375 0 Z "/>
</g>
<g id="glyph-0-15">
<path d="M 0.636719 -1.125 L 0.636719 -1.039062 L 0.386719 -1.039062 L 0.382812 -0.335938 C 0.382812 -0.273438 0.390625 -0.226562 0.398438 -0.195312 C 0.417969 -0.136719 0.457031 -0.109375 0.515625 -0.109375 C 0.542969 -0.109375 0.570312 -0.117188 0.589844 -0.128906 C 0.613281 -0.144531 0.636719 -0.167969 0.664062 -0.195312 L 0.695312 -0.167969 L 0.671875 -0.132812 C 0.628906 -0.0742188 0.582031 -0.0351562 0.535156 -0.0117188 C 0.488281 0.0117188 0.441406 0.0234375 0.398438 0.0234375 C 0.304688 0.0234375 0.238281 -0.0195312 0.203125 -0.105469 C 0.183594 -0.152344 0.175781 -0.214844 0.175781 -0.296875 L 0.175781 -1.039062 L 0.0429688 -1.039062 C 0.0390625 -1.039062 0.0351562 -1.042969 0.0351562 -1.046875 C 0.03125 -1.046875 0.03125 -1.050781 0.03125 -1.054688 C 0.03125 -1.0625 0.03125 -1.070312 0.0351562 -1.074219 C 0.0390625 -1.078125 0.0507812 -1.089844 0.0703125 -1.105469 C 0.125 -1.152344 0.167969 -1.1875 0.191406 -1.21875 C 0.21875 -1.246094 0.277344 -1.324219 0.367188 -1.445312 C 0.378906 -1.445312 0.382812 -1.445312 0.386719 -1.445312 C 0.386719 -1.441406 0.390625 -1.4375 0.390625 -1.425781 L 0.390625 -1.125 Z "/>
</g>
<g id="glyph-0-16">
<path d="M 0.714844 -0.675781 C 0.621094 -0.644531 0.546875 -0.609375 0.484375 -0.574219 C 0.367188 -0.5 0.308594 -0.417969 0.308594 -0.328125 C 0.308594 -0.253906 0.332031 -0.199219 0.382812 -0.164062 C 0.414062 -0.140625 0.449219 -0.128906 0.488281 -0.128906 C 0.542969 -0.128906 0.59375 -0.144531 0.644531 -0.175781 C 0.691406 -0.203125 0.714844 -0.242188 0.714844 -0.289062 Z M 0.0898438 -0.242188 C 0.0898438 -0.359375 0.152344 -0.460938 0.269531 -0.539062 C 0.34375 -0.585938 0.492188 -0.652344 0.714844 -0.738281 L 0.714844 -0.839844 C 0.714844 -0.921875 0.707031 -0.980469 0.691406 -1.015625 C 0.664062 -1.070312 0.605469 -1.097656 0.519531 -1.097656 C 0.476562 -1.097656 0.4375 -1.085938 0.402344 -1.0625 C 0.363281 -1.042969 0.34375 -1.011719 0.34375 -0.972656 C 0.34375 -0.964844 0.347656 -0.949219 0.351562 -0.925781 C 0.355469 -0.902344 0.359375 -0.886719 0.359375 -0.878906 C 0.359375 -0.835938 0.34375 -0.804688 0.3125 -0.785156 C 0.296875 -0.773438 0.273438 -0.769531 0.25 -0.769531 C 0.214844 -0.769531 0.1875 -0.78125 0.167969 -0.804688 C 0.148438 -0.828125 0.136719 -0.855469 0.136719 -0.886719 C 0.136719 -0.941406 0.171875 -1 0.242188 -1.0625 C 0.3125 -1.125 0.417969 -1.15625 0.554688 -1.15625 C 0.710938 -1.15625 0.816406 -1.105469 0.875 -1.003906 C 0.90625 -0.949219 0.917969 -0.867188 0.917969 -0.757812 L 0.917969 -0.269531 C 0.917969 -0.222656 0.921875 -0.1875 0.929688 -0.171875 C 0.941406 -0.140625 0.960938 -0.125 0.996094 -0.125 C 1.015625 -0.125 1.027344 -0.125 1.042969 -0.132812 C 1.054688 -0.136719 1.074219 -0.152344 1.105469 -0.171875 L 1.105469 -0.109375 C 1.078125 -0.078125 1.050781 -0.0507812 1.019531 -0.03125 C 0.976562 0 0.929688 0.015625 0.882812 0.015625 C 0.828125 0.015625 0.785156 -0.00390625 0.761719 -0.0390625 C 0.738281 -0.0742188 0.722656 -0.117188 0.71875 -0.167969 C 0.65625 -0.113281 0.605469 -0.0742188 0.5625 -0.046875 C 0.488281 -0.00390625 0.417969 0.0195312 0.351562 0.0195312 C 0.28125 0.0195312 0.21875 -0.0078125 0.167969 -0.0546875 C 0.117188 -0.105469 0.0898438 -0.167969 0.0898438 -0.242188 Z "/>
</g>
<g id="glyph-0-17">
<path d="M 0.203125 -1.574219 C 0.203125 -1.609375 0.21875 -1.640625 0.242188 -1.667969 C 0.265625 -1.691406 0.296875 -1.703125 0.332031 -1.703125 C 0.367188 -1.703125 0.398438 -1.691406 0.421875 -1.667969 C 0.445312 -1.640625 0.460938 -1.613281 0.460938 -1.574219 C 0.460938 -1.539062 0.445312 -1.511719 0.421875 -1.484375 C 0.398438 -1.460938 0.367188 -1.449219 0.332031 -1.449219 C 0.296875 -1.449219 0.265625 -1.460938 0.242188 -1.484375 C 0.21875 -1.511719 0.203125 -1.539062 0.203125 -1.574219 Z M 0.046875 -0.0351562 C 0.136719 -0.0429688 0.191406 -0.0585938 0.214844 -0.078125 C 0.238281 -0.101562 0.246094 -0.160156 0.246094 -0.253906 L 0.246094 -0.835938 C 0.246094 -0.890625 0.242188 -0.925781 0.238281 -0.945312 C 0.226562 -0.980469 0.199219 -0.996094 0.160156 -0.996094 C 0.152344 -0.996094 0.140625 -0.996094 0.132812 -0.992188 C 0.125 -0.992188 0.101562 -0.984375 0.0585938 -0.972656 L 0.0585938 -1.011719 L 0.113281 -1.027344 C 0.253906 -1.074219 0.355469 -1.109375 0.410156 -1.132812 C 0.433594 -1.144531 0.449219 -1.148438 0.453125 -1.148438 C 0.457031 -1.144531 0.457031 -1.136719 0.457031 -1.128906 L 0.457031 -0.253906 C 0.457031 -0.160156 0.46875 -0.101562 0.488281 -0.078125 C 0.511719 -0.0546875 0.5625 -0.0390625 0.640625 -0.0351562 L 0.640625 0 L 0.046875 0 Z "/>
</g>
<g id="glyph-0-18">
<path d="M 0.046875 -0.0351562 C 0.101562 -0.0429688 0.144531 -0.0546875 0.167969 -0.078125 C 0.191406 -0.0976562 0.203125 -0.148438 0.203125 -0.222656 L 0.203125 -0.839844 C 0.203125 -0.894531 0.195312 -0.929688 0.1875 -0.949219 C 0.171875 -0.980469 0.140625 -0.996094 0.0898438 -0.996094 C 0.0820312 -0.996094 0.078125 -0.996094 0.0703125 -0.996094 C 0.0625 -0.996094 0.0507812 -0.992188 0.0390625 -0.992188 L 0.0390625 -1.035156 C 0.0742188 -1.046875 0.152344 -1.070312 0.277344 -1.109375 L 0.390625 -1.148438 C 0.398438 -1.148438 0.402344 -1.148438 0.402344 -1.140625 C 0.402344 -1.136719 0.402344 -1.132812 0.402344 -1.125 L 0.402344 -0.945312 C 0.476562 -1.015625 0.539062 -1.0625 0.578125 -1.089844 C 0.644531 -1.128906 0.710938 -1.148438 0.777344 -1.148438 C 0.832031 -1.148438 0.882812 -1.132812 0.929688 -1.101562 C 1.015625 -1.039062 1.0625 -0.929688 1.0625 -0.773438 L 1.0625 -0.203125 C 1.0625 -0.144531 1.074219 -0.101562 1.097656 -0.0742188 C 1.121094 -0.046875 1.160156 -0.0351562 1.214844 -0.0351562 L 1.214844 0 L 0.695312 0 L 0.695312 -0.0351562 C 0.753906 -0.0429688 0.792969 -0.0585938 0.816406 -0.0820312 C 0.839844 -0.109375 0.851562 -0.164062 0.851562 -0.246094 L 0.851562 -0.765625 C 0.851562 -0.835938 0.839844 -0.894531 0.8125 -0.941406 C 0.789062 -0.988281 0.738281 -1.007812 0.671875 -1.007812 C 0.621094 -1.007812 0.574219 -0.992188 0.523438 -0.960938 C 0.496094 -0.941406 0.460938 -0.910156 0.417969 -0.867188 L 0.417969 -0.183594 C 0.417969 -0.125 0.429688 -0.0859375 0.457031 -0.0664062 C 0.480469 -0.046875 0.523438 -0.0351562 0.578125 -0.0351562 L 0.578125 0 L 0.046875 0 Z "/>
</g>
<g id="glyph-0-19">
<path d="M 1.21875 -1.085938 C 1.152344 -1.082031 1.109375 -1.074219 1.089844 -1.0625 C 1.0625 -1.042969 1.050781 -1.003906 1.050781 -0.945312 L 1.050781 -0.175781 C 1.050781 -0.117188 1.0625 -0.078125 1.089844 -0.0585938 C 1.109375 -0.0429688 1.152344 -0.0351562 1.21875 -0.0351562 L 1.21875 0 L 0.664062 0 L 0.664062 -0.0351562 C 0.730469 -0.0351562 0.773438 -0.0429688 0.796875 -0.0585938 C 0.828125 -0.078125 0.84375 -0.117188 0.84375 -0.175781 L 0.84375 -0.90625 C 0.84375 -0.96875 0.828125 -1.007812 0.796875 -1.023438 C 0.773438 -1.039062 0.730469 -1.046875 0.664062 -1.046875 C 0.605469 -1.046875 0.5625 -1.035156 0.535156 -1.011719 C 0.507812 -0.988281 0.492188 -0.949219 0.488281 -0.890625 C 0.484375 -0.847656 0.480469 -0.78125 0.480469 -0.691406 C 0.476562 -0.550781 0.476562 -0.453125 0.46875 -0.402344 C 0.460938 -0.292969 0.441406 -0.199219 0.414062 -0.121094 C 0.378906 -0.0234375 0.3125 0.0234375 0.21875 0.0234375 C 0.167969 0.0234375 0.121094 0.0117188 0.0859375 -0.015625 C 0.046875 -0.046875 0.0234375 -0.0859375 0.0234375 -0.136719 C 0.0234375 -0.210938 0.0585938 -0.25 0.125 -0.25 C 0.175781 -0.25 0.210938 -0.21875 0.230469 -0.152344 C 0.242188 -0.113281 0.257812 -0.09375 0.28125 -0.09375 C 0.355469 -0.09375 0.394531 -0.308594 0.394531 -0.738281 L 0.394531 -0.835938 C 0.394531 -0.929688 0.386719 -0.988281 0.371094 -1.015625 C 0.347656 -1.058594 0.292969 -1.082031 0.203125 -1.085938 L 0.203125 -1.121094 L 1.21875 -1.121094 Z "/>
</g>
<g id="glyph-0-20">
<path d="M 0.75 -0.535156 L 0.6875 -0.535156 L 0.28125 0 L 0.0078125 0 L 0.0078125 -0.03125 C 0.0546875 -0.0390625 0.0898438 -0.0625 0.121094 -0.101562 L 0.457031 -0.542969 C 0.371094 -0.554688 0.308594 -0.574219 0.261719 -0.597656 C 0.167969 -0.644531 0.121094 -0.722656 0.121094 -0.824219 C 0.121094 -1.023438 0.265625 -1.121094 0.558594 -1.121094 L 1.128906 -1.121094 L 1.128906 -1.085938 C 1.0625 -1.082031 1.019531 -1.074219 1 -1.0625 C 0.976562 -1.042969 0.960938 -1.003906 0.960938 -0.945312 L 0.960938 -0.175781 C 0.960938 -0.117188 0.976562 -0.078125 1 -0.0585938 C 1.023438 -0.0429688 1.0625 -0.0351562 1.128906 -0.0351562 L 1.128906 0 L 0.601562 0 L 0.601562 -0.0351562 C 0.675781 -0.0351562 0.722656 -0.0546875 0.738281 -0.0859375 C 0.746094 -0.105469 0.75 -0.132812 0.75 -0.175781 Z M 0.75 -0.613281 L 0.75 -1.007812 C 0.75 -1.035156 0.714844 -1.046875 0.636719 -1.046875 C 0.445312 -1.046875 0.351562 -0.980469 0.351562 -0.84375 C 0.351562 -0.6875 0.449219 -0.609375 0.648438 -0.609375 C 0.652344 -0.609375 0.6875 -0.609375 0.75 -0.613281 Z "/>
</g>
<g id="glyph-0-21">
<path d="M 0.0234375 -0.0351562 C 0.0859375 -0.0351562 0.128906 -0.0429688 0.152344 -0.0585938 C 0.179688 -0.078125 0.191406 -0.117188 0.191406 -0.175781 L 0.191406 -0.945312 C 0.191406 -1.003906 0.175781 -1.042969 0.152344 -1.0625 C 0.132812 -1.074219 0.0898438 -1.082031 0.0234375 -1.085938 L 0.0234375 -1.121094 L 0.632812 -1.121094 C 0.878906 -1.121094 1.003906 -1.03125 1.003906 -0.851562 C 1.003906 -0.71875 0.914062 -0.632812 0.742188 -0.59375 C 0.820312 -0.578125 0.882812 -0.558594 0.929688 -0.535156 C 1.019531 -0.488281 1.0625 -0.410156 1.0625 -0.304688 C 1.0625 -0.195312 1.011719 -0.113281 0.914062 -0.0625 C 0.835938 -0.0195312 0.738281 0 0.617188 0 L 0.0234375 0 Z M 0.398438 -0.648438 C 0.398438 -0.628906 0.425781 -0.617188 0.472656 -0.617188 C 0.6875 -0.617188 0.792969 -0.691406 0.792969 -0.835938 C 0.792969 -0.976562 0.695312 -1.050781 0.5 -1.050781 C 0.433594 -1.050781 0.398438 -1.035156 0.398438 -1.007812 Z M 0.398438 -0.136719 C 0.398438 -0.105469 0.410156 -0.0859375 0.425781 -0.078125 C 0.4375 -0.0742188 0.460938 -0.0703125 0.492188 -0.0703125 C 0.71875 -0.0703125 0.832031 -0.148438 0.832031 -0.304688 C 0.832031 -0.46875 0.710938 -0.546875 0.46875 -0.546875 C 0.421875 -0.546875 0.398438 -0.539062 0.398438 -0.519531 Z "/>
</g>
<g id="glyph-0-22">
<path d="M 1.03125 -0.371094 C 0.96875 -0.25 0.90625 -0.160156 0.84375 -0.101562 C 0.757812 -0.015625 0.65625 0.0234375 0.535156 0.0234375 C 0.386719 0.0234375 0.269531 -0.0351562 0.183594 -0.152344 C 0.101562 -0.257812 0.0625 -0.386719 0.0625 -0.539062 C 0.0625 -0.710938 0.109375 -0.855469 0.207031 -0.96875 C 0.308594 -1.085938 0.441406 -1.144531 0.613281 -1.144531 C 0.699219 -1.144531 0.78125 -1.125 0.855469 -1.089844 C 0.949219 -1.042969 0.996094 -0.980469 0.996094 -0.902344 C 0.996094 -0.871094 0.984375 -0.847656 0.960938 -0.824219 C 0.9375 -0.800781 0.914062 -0.789062 0.882812 -0.789062 C 0.851562 -0.789062 0.828125 -0.800781 0.804688 -0.824219 C 0.785156 -0.84375 0.773438 -0.871094 0.769531 -0.898438 C 0.761719 -1.015625 0.699219 -1.074219 0.578125 -1.074219 C 0.472656 -1.074219 0.390625 -1.023438 0.332031 -0.929688 C 0.28125 -0.847656 0.253906 -0.75 0.253906 -0.636719 C 0.253906 -0.511719 0.285156 -0.402344 0.351562 -0.308594 C 0.421875 -0.203125 0.519531 -0.148438 0.640625 -0.148438 C 0.71875 -0.148438 0.785156 -0.175781 0.847656 -0.222656 C 0.894531 -0.257812 0.941406 -0.316406 0.996094 -0.394531 Z "/>
</g>
<g id="glyph-0-23">
<path d="M 0.00390625 0.507812 C 0.0703125 0.503906 0.117188 0.488281 0.140625 0.472656 C 0.171875 0.449219 0.1875 0.40625 0.1875 0.34375 L 0.1875 -0.816406 C 0.1875 -0.882812 0.183594 -0.925781 0.179688 -0.941406 C 0.167969 -0.976562 0.132812 -0.992188 0.0820312 -0.992188 L 0.00390625 -0.992188 L 0.00390625 -1.027344 L 0.398438 -1.144531 L 0.398438 -0.960938 C 0.496094 -1.082031 0.617188 -1.144531 0.761719 -1.144531 C 0.898438 -1.144531 1.003906 -1.089844 1.082031 -0.980469 C 1.144531 -0.882812 1.175781 -0.761719 1.175781 -0.617188 C 1.175781 -0.449219 1.128906 -0.304688 1.039062 -0.179688 C 0.9375 -0.0429688 0.804688 0.0234375 0.644531 0.0234375 C 0.554688 0.0234375 0.472656 -0.0117188 0.398438 -0.0859375 L 0.398438 0.34375 C 0.398438 0.410156 0.417969 0.453125 0.457031 0.476562 C 0.484375 0.492188 0.53125 0.503906 0.609375 0.507812 L 0.609375 0.542969 L 0.00390625 0.542969 Z M 0.398438 -0.253906 C 0.398438 -0.195312 0.429688 -0.148438 0.488281 -0.109375 C 0.539062 -0.0742188 0.59375 -0.0546875 0.65625 -0.0546875 C 0.761719 -0.0546875 0.839844 -0.109375 0.894531 -0.21875 C 0.9375 -0.304688 0.960938 -0.40625 0.960938 -0.523438 C 0.960938 -0.648438 0.9375 -0.75 0.898438 -0.835938 C 0.84375 -0.949219 0.761719 -1.003906 0.648438 -1.003906 C 0.578125 -1.003906 0.511719 -0.976562 0.449219 -0.921875 C 0.425781 -0.902344 0.410156 -0.886719 0.40625 -0.875 C 0.402344 -0.863281 0.398438 -0.84375 0.398438 -0.8125 Z "/>
</g>
<g id="glyph-0-24">
<path d="M 0.0234375 -0.0351562 C 0.0859375 -0.0351562 0.128906 -0.0429688 0.152344 -0.0585938 C 0.179688 -0.078125 0.191406 -0.117188 0.191406 -0.175781 L 0.191406 -0.945312 C 0.191406 -1.003906 0.175781 -1.042969 0.152344 -1.0625 C 0.132812 -1.074219 0.0898438 -1.082031 0.0234375 -1.085938 L 0.0234375 -1.121094 L 0.566406 -1.121094 L 0.566406 -1.085938 C 0.527344 -1.085938 0.496094 -1.082031 0.476562 -1.078125 C 0.441406 -1.066406 0.421875 -1.050781 0.410156 -1.023438 C 0.402344 -1.007812 0.398438 -0.980469 0.398438 -0.945312 L 0.398438 -0.566406 C 0.40625 -0.570312 0.414062 -0.574219 0.417969 -0.574219 C 0.441406 -0.585938 0.503906 -0.644531 0.601562 -0.75 L 0.691406 -0.84375 C 0.796875 -0.953125 0.851562 -1.015625 0.851562 -1.03125 C 0.851562 -1.066406 0.804688 -1.085938 0.710938 -1.085938 L 0.710938 -1.121094 L 1.191406 -1.121094 L 1.191406 -1.085938 C 1.140625 -1.082031 1.105469 -1.078125 1.082031 -1.066406 C 1.042969 -1.054688 0.984375 -1.007812 0.898438 -0.925781 L 0.597656 -0.632812 L 1.078125 -0.125 C 1.113281 -0.0898438 1.136719 -0.0664062 1.15625 -0.0585938 C 1.179688 -0.0429688 1.210938 -0.0351562 1.246094 -0.0351562 L 1.246094 0 L 0.707031 0 L 0.707031 -0.0351562 L 0.765625 -0.0390625 C 0.808594 -0.0429688 0.828125 -0.0507812 0.828125 -0.0625 C 0.828125 -0.0664062 0.820312 -0.0820312 0.800781 -0.109375 C 0.699219 -0.242188 0.578125 -0.375 0.4375 -0.507812 C 0.425781 -0.515625 0.414062 -0.527344 0.398438 -0.53125 L 0.398438 -0.175781 C 0.398438 -0.109375 0.417969 -0.0664062 0.453125 -0.0507812 C 0.472656 -0.0429688 0.511719 -0.0351562 0.566406 -0.0351562 L 0.566406 0 L 0.0234375 0 Z "/>
</g>
</g>
<image id="source-41" x="0" y="0" width="0" height="0"/>
<mask id="mask-0">
<use xlink:href="#source-41"/>
</mask>
</defs>
<g fill="rgb(100%, 100%, 100%)" fill-opacity="1">
<use xlink:href="#glyph-0-0" x="30" y="21.875"/>
<use xlink:href="#glyph-0-1" x="32" y="21.875"/>
<use xlink:href="#glyph-0-2" x="33" y="21.875"/>
<use xlink:href="#glyph-0-3" x="34" y="21.875"/>
<use xlink:href="#glyph-0-4" x="35" y="21.875"/>
<use xlink:href="#glyph-0-5" x="36" y="21.875"/>
<use xlink:href="#glyph-0-6" x="38" y="21.875"/>
<use xlink:href="#glyph-0-7" x="39" y="21.875"/>
<use xlink:href="#glyph-0-8" x="40" y="21.875"/>
<use xlink:href="#glyph-0-9" x="41" y="21.875"/>
<use xlink:href="#glyph-0-4" x="42" y="21.875"/>
<use xlink:href="#glyph-0-10" x="43" y="21.875"/>
<use xlink:href="#glyph-0-1" x="44" y="21.875"/>
<use xlink:href="#glyph-0-11" x="45" y="21.875"/>
<use xlink:href="#glyph-0-12" x="46" y="21.875"/>
<use xlink:href="#glyph-0-11" x="47" y="21.875"/>
<use xlink:href="#glyph-0-11" x="48" y="21.875"/>
<use xlink:href="#glyph-0-13" x="49" y="21.875"/>
<use xlink:href="#glyph-0-14" x="51" y="21.875"/>
<use xlink:href="#glyph-0-6" x="52" y="21.875"/>
</g>
<g fill="rgb(100%, 100%, 100%)" fill-opacity="1">
<use xlink:href="#glyph-0-15" x="53" y="21.875"/>
<use xlink:href="#glyph-0-16" x="54" y="21.875"/>
<use xlink:href="#glyph-0-17" x="55" y="21.875"/>
<use xlink:href="#glyph-0-18" x="56" y="21.875"/>
<use xlink:href="#glyph-0-15" x="57" y="21.875"/>
<use xlink:href="#glyph-0-6" x="58" y="21.875"/>
</g>
<g fill="rgb(100%, 100%, 100%)" fill-opacity="1">
<use xlink:href="#glyph-0-10" x="59" y="21.875"/>
<use xlink:href="#glyph-0-19" x="60" y="21.875"/>
<use xlink:href="#glyph-0-20" x="61" y="21.875"/>
<use xlink:href="#glyph-0-6" x="62" y="21.875"/>
<use xlink:href="#glyph-0-21" x="63" y="21.875"/>
<use xlink:href="#glyph-0-22" x="64" y="21.875"/>
<use xlink:href="#glyph-0-4" x="65" y="21.875"/>
<use xlink:href="#glyph-0-14" x="66" y="21.875"/>
<use xlink:href="#glyph-0-6" x="67" y="21.875"/>
<use xlink:href="#glyph-0-22" x="68" y="21.875"/>
<use xlink:href="#glyph-0-2" x="69" y="21.875"/>
<use xlink:href="#glyph-0-23" x="70" y="21.875"/>
<use xlink:href="#glyph-0-7" x="71" y="21.875"/>
<use xlink:href="#glyph-0-24" x="72" y="21.875"/>
<use xlink:href="#glyph-0-1" x="73" y="21.875"/>
<use xlink:href="#glyph-0-6" x="74" y="21.875"/>
<use xlink:href="#glyph-0-24" x="75" y="21.875"/>
<use xlink:href="#glyph-0-7" x="76" y="21.875"/>
<use xlink:href="#glyph-0-5" x="77" y="21.875"/>
<use xlink:href="#glyph-0-3" x="79" y="21.875"/>
<use xlink:href="#glyph-0-11" x="80" y="21.875"/>
<use xlink:href="#glyph-0-10" x="81" y="21.875"/>
<use xlink:href="#glyph-0-13" x="82" y="21.875"/>
</g>
</svg>
